%TF.GenerationSoftware,KiCad,Pcbnew,8.0.0-8.0.0-1~ubuntu22.04.1*%
%TF.CreationDate,2024-03-31T18:49:52+02:00*%
%TF.ProjectId,PCB LED,50434220-4c45-4442-9e6b-696361645f70,rev?*%
%TF.SameCoordinates,Original*%
%TF.FileFunction,Copper,L2,Bot*%
%TF.FilePolarity,Positive*%
%FSLAX46Y46*%
G04 Gerber Fmt 4.6, Leading zero omitted, Abs format (unit mm)*
G04 Created by KiCad (PCBNEW 8.0.0-8.0.0-1~ubuntu22.04.1) date 2024-03-31 18:49:52*
%MOMM*%
%LPD*%
G01*
G04 APERTURE LIST*
G04 Aperture macros list*
%AMRoundRect*
0 Rectangle with rounded corners*
0 $1 Rounding radius*
0 $2 $3 $4 $5 $6 $7 $8 $9 X,Y pos of 4 corners*
0 Add a 4 corners polygon primitive as box body*
4,1,4,$2,$3,$4,$5,$6,$7,$8,$9,$2,$3,0*
0 Add four circle primitives for the rounded corners*
1,1,$1+$1,$2,$3*
1,1,$1+$1,$4,$5*
1,1,$1+$1,$6,$7*
1,1,$1+$1,$8,$9*
0 Add four rect primitives between the rounded corners*
20,1,$1+$1,$2,$3,$4,$5,0*
20,1,$1+$1,$4,$5,$6,$7,0*
20,1,$1+$1,$6,$7,$8,$9,0*
20,1,$1+$1,$8,$9,$2,$3,0*%
G04 Aperture macros list end*
%TA.AperFunction,ComponentPad*%
%ADD10C,0.700000*%
%TD*%
%TA.AperFunction,ComponentPad*%
%ADD11C,4.400000*%
%TD*%
%TA.AperFunction,ComponentPad*%
%ADD12RoundRect,0.250000X-0.600000X-0.725000X0.600000X-0.725000X0.600000X0.725000X-0.600000X0.725000X0*%
%TD*%
%TA.AperFunction,ComponentPad*%
%ADD13O,1.700000X1.950000*%
%TD*%
G04 APERTURE END LIST*
D10*
%TO.P,H3,1,1*%
%TO.N,+5V*%
X60000000Y-89650000D03*
X58833274Y-89166726D03*
X61166726Y-89166726D03*
X58350000Y-88000000D03*
D11*
X60000000Y-88000000D03*
D10*
X61650000Y-88000000D03*
X58833274Y-86833274D03*
X61166726Y-86833274D03*
X60000000Y-86350000D03*
%TD*%
%TO.P,H4,1,1*%
%TO.N,+5V*%
X45000000Y-89650000D03*
X43833274Y-89166726D03*
X46166726Y-89166726D03*
X43350000Y-88000000D03*
D11*
X45000000Y-88000000D03*
D10*
X46650000Y-88000000D03*
X43833274Y-86833274D03*
X46166726Y-86833274D03*
X45000000Y-86350000D03*
%TD*%
D12*
%TO.P,J1,1,Pin_1*%
%TO.N,+5V*%
X48750000Y-93300000D03*
D13*
%TO.P,J1,2,Pin_2*%
%TO.N,Net-(D1-BK)*%
X51250000Y-93300000D03*
%TO.P,J1,3,Pin_3*%
%TO.N,Net-(D1-GK)*%
X53750000Y-93300000D03*
%TO.P,J1,4,Pin_4*%
%TO.N,Net-(D1-RK)*%
X56250000Y-93300000D03*
%TD*%
%TA.AperFunction,Conductor*%
%TO.N,+5V*%
G36*
X58537880Y-85520185D02*
G01*
X58583635Y-85572989D01*
X58593579Y-85642147D01*
X58564554Y-85705703D01*
X58534991Y-85730617D01*
X58463422Y-85773881D01*
X58463416Y-85773886D01*
X58275030Y-85921474D01*
X58275029Y-85921476D01*
X59417262Y-87063709D01*
X59283398Y-87160967D01*
X59160967Y-87283398D01*
X59063709Y-87417262D01*
X57921476Y-86275029D01*
X57921474Y-86275030D01*
X57773886Y-86463416D01*
X57773881Y-86463422D01*
X57604898Y-86742956D01*
X57604897Y-86742958D01*
X57470839Y-87040824D01*
X57470835Y-87040835D01*
X57373667Y-87352658D01*
X57314786Y-87673961D01*
X57295065Y-88000000D01*
X57314786Y-88326038D01*
X57373667Y-88647341D01*
X57470835Y-88959164D01*
X57470839Y-88959175D01*
X57604897Y-89257041D01*
X57604898Y-89257043D01*
X57773881Y-89536576D01*
X57921476Y-89724968D01*
X59063708Y-88582736D01*
X59160967Y-88716602D01*
X59283398Y-88839033D01*
X59417262Y-88936290D01*
X58275030Y-90078522D01*
X58275030Y-90078523D01*
X58463423Y-90226118D01*
X58742956Y-90395101D01*
X58742958Y-90395102D01*
X59040824Y-90529160D01*
X59040835Y-90529164D01*
X59352658Y-90626332D01*
X59673961Y-90685213D01*
X60000000Y-90704934D01*
X60326038Y-90685213D01*
X60647341Y-90626332D01*
X60959164Y-90529164D01*
X60959175Y-90529160D01*
X61257041Y-90395102D01*
X61257043Y-90395101D01*
X61536586Y-90226112D01*
X61724968Y-90078523D01*
X61724968Y-90078522D01*
X60582737Y-88936290D01*
X60716602Y-88839033D01*
X60839033Y-88716602D01*
X60936290Y-88582737D01*
X62078522Y-89724968D01*
X62078523Y-89724968D01*
X62226111Y-89536586D01*
X62269383Y-89465007D01*
X62320911Y-89417820D01*
X62389770Y-89405981D01*
X62454099Y-89433250D01*
X62493473Y-89490968D01*
X62499500Y-89529157D01*
X62499500Y-92496249D01*
X62499274Y-92503736D01*
X62481728Y-92793794D01*
X62479923Y-92808659D01*
X62428219Y-93090798D01*
X62424635Y-93105336D01*
X62339306Y-93379167D01*
X62333997Y-93393168D01*
X62216275Y-93654736D01*
X62209316Y-93667995D01*
X62060928Y-93913459D01*
X62052422Y-93925782D01*
X61875526Y-94151573D01*
X61865596Y-94162781D01*
X61662781Y-94365596D01*
X61651573Y-94375526D01*
X61425782Y-94552422D01*
X61413459Y-94560928D01*
X61167995Y-94709316D01*
X61154736Y-94716275D01*
X60893168Y-94833997D01*
X60879167Y-94839306D01*
X60605336Y-94924635D01*
X60590798Y-94928219D01*
X60308659Y-94979923D01*
X60293794Y-94981728D01*
X60003736Y-94999274D01*
X59996249Y-94999500D01*
X49561956Y-94999500D01*
X49494917Y-94979815D01*
X49449162Y-94927011D01*
X49439218Y-94857853D01*
X49468243Y-94794297D01*
X49522952Y-94757794D01*
X49669119Y-94709358D01*
X49669124Y-94709356D01*
X49818345Y-94617315D01*
X49942315Y-94493345D01*
X50034356Y-94344124D01*
X50034358Y-94344119D01*
X50089505Y-94177697D01*
X50089506Y-94177690D01*
X50099999Y-94074986D01*
X50099999Y-94003528D01*
X50119683Y-93936488D01*
X50172486Y-93890732D01*
X50241644Y-93880788D01*
X50305200Y-93909812D01*
X50327101Y-93934635D01*
X50434022Y-94094655D01*
X50580342Y-94240975D01*
X50580345Y-94240977D01*
X50752402Y-94355941D01*
X50943580Y-94435130D01*
X51146530Y-94475499D01*
X51146534Y-94475500D01*
X51146535Y-94475500D01*
X51353466Y-94475500D01*
X51353467Y-94475499D01*
X51556420Y-94435130D01*
X51747598Y-94355941D01*
X51919655Y-94240977D01*
X52065977Y-94094655D01*
X52180941Y-93922598D01*
X52260130Y-93731420D01*
X52300499Y-93528469D01*
X52699500Y-93528469D01*
X52739868Y-93731412D01*
X52739870Y-93731420D01*
X52805859Y-93890732D01*
X52819059Y-93922598D01*
X52827102Y-93934635D01*
X52934024Y-94094657D01*
X53080342Y-94240975D01*
X53080345Y-94240977D01*
X53252402Y-94355941D01*
X53443580Y-94435130D01*
X53646530Y-94475499D01*
X53646534Y-94475500D01*
X53646535Y-94475500D01*
X53853466Y-94475500D01*
X53853467Y-94475499D01*
X54056420Y-94435130D01*
X54247598Y-94355941D01*
X54419655Y-94240977D01*
X54565977Y-94094655D01*
X54680941Y-93922598D01*
X54760130Y-93731420D01*
X54800499Y-93528469D01*
X55199500Y-93528469D01*
X55239868Y-93731412D01*
X55239870Y-93731420D01*
X55305859Y-93890732D01*
X55319059Y-93922598D01*
X55327102Y-93934635D01*
X55434024Y-94094657D01*
X55580342Y-94240975D01*
X55580345Y-94240977D01*
X55752402Y-94355941D01*
X55943580Y-94435130D01*
X56146530Y-94475499D01*
X56146534Y-94475500D01*
X56146535Y-94475500D01*
X56353466Y-94475500D01*
X56353467Y-94475499D01*
X56556420Y-94435130D01*
X56747598Y-94355941D01*
X56919655Y-94240977D01*
X57065977Y-94094655D01*
X57180941Y-93922598D01*
X57260130Y-93731420D01*
X57300500Y-93528465D01*
X57300500Y-93071535D01*
X57260130Y-92868580D01*
X57180941Y-92677402D01*
X57065977Y-92505345D01*
X57065975Y-92505342D01*
X56919657Y-92359024D01*
X56833626Y-92301541D01*
X56747598Y-92244059D01*
X56556420Y-92164870D01*
X56556412Y-92164868D01*
X56353469Y-92124500D01*
X56353465Y-92124500D01*
X56146535Y-92124500D01*
X56146530Y-92124500D01*
X55943587Y-92164868D01*
X55943579Y-92164870D01*
X55752403Y-92244058D01*
X55580342Y-92359024D01*
X55434024Y-92505342D01*
X55319058Y-92677403D01*
X55239870Y-92868579D01*
X55239868Y-92868587D01*
X55199500Y-93071530D01*
X55199500Y-93528469D01*
X54800499Y-93528469D01*
X54800500Y-93528465D01*
X54800500Y-93071535D01*
X54760130Y-92868580D01*
X54680941Y-92677402D01*
X54565977Y-92505345D01*
X54565975Y-92505342D01*
X54419657Y-92359024D01*
X54333626Y-92301541D01*
X54247598Y-92244059D01*
X54056420Y-92164870D01*
X54056412Y-92164868D01*
X53853469Y-92124500D01*
X53853465Y-92124500D01*
X53646535Y-92124500D01*
X53646530Y-92124500D01*
X53443587Y-92164868D01*
X53443579Y-92164870D01*
X53252403Y-92244058D01*
X53080342Y-92359024D01*
X52934024Y-92505342D01*
X52819058Y-92677403D01*
X52739870Y-92868579D01*
X52739868Y-92868587D01*
X52699500Y-93071530D01*
X52699500Y-93528469D01*
X52300499Y-93528469D01*
X52300500Y-93528465D01*
X52300500Y-93071535D01*
X52260130Y-92868580D01*
X52180941Y-92677402D01*
X52065977Y-92505345D01*
X52065975Y-92505342D01*
X51919657Y-92359024D01*
X51833626Y-92301541D01*
X51747598Y-92244059D01*
X51556420Y-92164870D01*
X51556412Y-92164868D01*
X51353469Y-92124500D01*
X51353465Y-92124500D01*
X51146535Y-92124500D01*
X51146530Y-92124500D01*
X50943587Y-92164868D01*
X50943579Y-92164870D01*
X50752403Y-92244058D01*
X50580342Y-92359024D01*
X50434024Y-92505342D01*
X50327102Y-92665365D01*
X50273489Y-92710171D01*
X50204165Y-92718878D01*
X50141137Y-92688724D01*
X50104417Y-92629281D01*
X50099999Y-92596475D01*
X50099999Y-92525028D01*
X50099998Y-92525012D01*
X50089505Y-92422302D01*
X50034358Y-92255880D01*
X50034356Y-92255875D01*
X49942315Y-92106654D01*
X49818345Y-91982684D01*
X49669124Y-91890643D01*
X49669119Y-91890641D01*
X49502697Y-91835494D01*
X49502690Y-91835493D01*
X49399986Y-91825000D01*
X49000000Y-91825000D01*
X49000000Y-92895854D01*
X48933343Y-92857370D01*
X48812535Y-92825000D01*
X48687465Y-92825000D01*
X48566657Y-92857370D01*
X48500000Y-92895854D01*
X48500000Y-91825000D01*
X48100028Y-91825000D01*
X48100012Y-91825001D01*
X47997302Y-91835494D01*
X47830880Y-91890641D01*
X47830875Y-91890643D01*
X47681654Y-91982684D01*
X47557684Y-92106654D01*
X47465643Y-92255875D01*
X47465641Y-92255880D01*
X47410494Y-92422302D01*
X47410493Y-92422309D01*
X47400000Y-92525013D01*
X47400000Y-93050000D01*
X48345854Y-93050000D01*
X48307370Y-93116657D01*
X48275000Y-93237465D01*
X48275000Y-93362535D01*
X48307370Y-93483343D01*
X48345854Y-93550000D01*
X47400001Y-93550000D01*
X47400001Y-94074986D01*
X47410494Y-94177697D01*
X47465641Y-94344119D01*
X47465643Y-94344124D01*
X47557684Y-94493345D01*
X47681654Y-94617315D01*
X47830875Y-94709356D01*
X47830880Y-94709358D01*
X47977050Y-94757794D01*
X48034495Y-94797566D01*
X48061318Y-94862082D01*
X48049003Y-94930858D01*
X48001460Y-94982058D01*
X47938046Y-94999500D01*
X45003751Y-94999500D01*
X44996264Y-94999274D01*
X44706205Y-94981728D01*
X44691340Y-94979923D01*
X44409201Y-94928219D01*
X44394663Y-94924635D01*
X44120832Y-94839306D01*
X44106831Y-94833997D01*
X43845263Y-94716275D01*
X43832004Y-94709316D01*
X43586540Y-94560928D01*
X43574217Y-94552422D01*
X43348426Y-94375526D01*
X43337218Y-94365596D01*
X43134403Y-94162781D01*
X43124473Y-94151573D01*
X43008487Y-94003528D01*
X42947573Y-93925776D01*
X42939075Y-93913465D01*
X42790680Y-93667989D01*
X42783727Y-93654743D01*
X42666000Y-93393163D01*
X42660693Y-93379167D01*
X42655510Y-93362535D01*
X42575363Y-93105335D01*
X42571780Y-93090798D01*
X42568249Y-93071530D01*
X42520075Y-92808657D01*
X42518271Y-92793794D01*
X42513739Y-92718878D01*
X42500726Y-92503736D01*
X42500500Y-92496249D01*
X42500500Y-89529158D01*
X42520185Y-89462119D01*
X42572989Y-89416364D01*
X42642147Y-89406420D01*
X42705703Y-89435445D01*
X42730617Y-89465009D01*
X42773877Y-89536571D01*
X42773880Y-89536575D01*
X42921476Y-89724968D01*
X44063708Y-88582736D01*
X44160967Y-88716602D01*
X44283398Y-88839033D01*
X44417262Y-88936290D01*
X43275030Y-90078522D01*
X43275030Y-90078523D01*
X43463423Y-90226118D01*
X43742956Y-90395101D01*
X43742958Y-90395102D01*
X44040824Y-90529160D01*
X44040835Y-90529164D01*
X44352658Y-90626332D01*
X44673961Y-90685213D01*
X45000000Y-90704934D01*
X45326038Y-90685213D01*
X45647341Y-90626332D01*
X45959164Y-90529164D01*
X45959175Y-90529160D01*
X46257041Y-90395102D01*
X46257043Y-90395101D01*
X46536586Y-90226112D01*
X46724968Y-90078523D01*
X46724968Y-90078522D01*
X45582737Y-88936290D01*
X45716602Y-88839033D01*
X45839033Y-88716602D01*
X45936290Y-88582737D01*
X47078522Y-89724968D01*
X47078523Y-89724968D01*
X47226112Y-89536586D01*
X47395101Y-89257043D01*
X47395102Y-89257041D01*
X47529160Y-88959175D01*
X47529164Y-88959164D01*
X47626332Y-88647341D01*
X47685213Y-88326038D01*
X47704934Y-88000000D01*
X47685213Y-87673961D01*
X47626332Y-87352658D01*
X47529164Y-87040835D01*
X47529160Y-87040824D01*
X47395102Y-86742958D01*
X47395101Y-86742956D01*
X47226118Y-86463423D01*
X47078522Y-86275030D01*
X45936290Y-87417262D01*
X45839033Y-87283398D01*
X45716602Y-87160967D01*
X45582736Y-87063709D01*
X46724968Y-85921476D01*
X46536576Y-85773881D01*
X46465009Y-85730617D01*
X46417822Y-85679089D01*
X46405983Y-85610230D01*
X46433252Y-85545901D01*
X46490970Y-85506527D01*
X46529159Y-85500500D01*
X58470841Y-85500500D01*
X58537880Y-85520185D01*
G37*
%TD.AperFunction*%
%TD*%
M02*
