%TF.GenerationSoftware,KiCad,Pcbnew,8.0.0-8.0.0-1~ubuntu22.04.1*%
%TF.CreationDate,2024-03-31T18:49:52+02:00*%
%TF.ProjectId,PCB LED,50434220-4c45-4442-9e6b-696361645f70,rev?*%
%TF.SameCoordinates,Original*%
%TF.FileFunction,Copper,L1,Top*%
%TF.FilePolarity,Positive*%
%FSLAX46Y46*%
G04 Gerber Fmt 4.6, Leading zero omitted, Abs format (unit mm)*
G04 Created by KiCad (PCBNEW 8.0.0-8.0.0-1~ubuntu22.04.1) date 2024-03-31 18:49:52*
%MOMM*%
%LPD*%
G01*
G04 APERTURE LIST*
G04 Aperture macros list*
%AMRoundRect*
0 Rectangle with rounded corners*
0 $1 Rounding radius*
0 $2 $3 $4 $5 $6 $7 $8 $9 X,Y pos of 4 corners*
0 Add a 4 corners polygon primitive as box body*
4,1,4,$2,$3,$4,$5,$6,$7,$8,$9,$2,$3,0*
0 Add four circle primitives for the rounded corners*
1,1,$1+$1,$2,$3*
1,1,$1+$1,$4,$5*
1,1,$1+$1,$6,$7*
1,1,$1+$1,$8,$9*
0 Add four rect primitives between the rounded corners*
20,1,$1+$1,$2,$3,$4,$5,0*
20,1,$1+$1,$4,$5,$6,$7,0*
20,1,$1+$1,$6,$7,$8,$9,0*
20,1,$1+$1,$8,$9,$2,$3,0*%
G04 Aperture macros list end*
%TA.AperFunction,SMDPad,CuDef*%
%ADD10RoundRect,0.135000X0.135000X0.185000X-0.135000X0.185000X-0.135000X-0.185000X0.135000X-0.185000X0*%
%TD*%
%TA.AperFunction,ComponentPad*%
%ADD11C,0.700000*%
%TD*%
%TA.AperFunction,ComponentPad*%
%ADD12C,4.400000*%
%TD*%
%TA.AperFunction,SMDPad,CuDef*%
%ADD13RoundRect,0.130000X-0.310000X-0.130000X0.310000X-0.130000X0.310000X0.130000X-0.310000X0.130000X0*%
%TD*%
%TA.AperFunction,ComponentPad*%
%ADD14RoundRect,0.250000X-0.600000X-0.725000X0.600000X-0.725000X0.600000X0.725000X-0.600000X0.725000X0*%
%TD*%
%TA.AperFunction,ComponentPad*%
%ADD15O,1.700000X1.950000*%
%TD*%
%TA.AperFunction,Conductor*%
%ADD16C,0.200000*%
%TD*%
G04 APERTURE END LIST*
D10*
%TO.P,R2,1*%
%TO.N,Net-(D1-GA)*%
X49737500Y-87920000D03*
%TO.P,R2,2*%
%TO.N,+5V*%
X48717500Y-87920000D03*
%TD*%
D11*
%TO.P,H3,1,1*%
%TO.N,+5V*%
X60000000Y-89650000D03*
X58833274Y-89166726D03*
X61166726Y-89166726D03*
X58350000Y-88000000D03*
D12*
X60000000Y-88000000D03*
D11*
X61650000Y-88000000D03*
X58833274Y-86833274D03*
X61166726Y-86833274D03*
X60000000Y-86350000D03*
%TD*%
D10*
%TO.P,R1,1*%
%TO.N,Net-(D1-RA)*%
X49750000Y-86350000D03*
%TO.P,R1,2*%
%TO.N,+5V*%
X48730000Y-86350000D03*
%TD*%
D11*
%TO.P,H4,1,1*%
%TO.N,+5V*%
X45000000Y-89650000D03*
X43833274Y-89166726D03*
X46166726Y-89166726D03*
X43350000Y-88000000D03*
D12*
X45000000Y-88000000D03*
D11*
X46650000Y-88000000D03*
X43833274Y-86833274D03*
X46166726Y-86833274D03*
X45000000Y-86350000D03*
%TD*%
D10*
%TO.P,R3,1*%
%TO.N,Net-(D1-BA)*%
X49750000Y-89500000D03*
%TO.P,R3,2*%
%TO.N,+5V*%
X48730000Y-89500000D03*
%TD*%
D13*
%TO.P,D1,1,RA*%
%TO.N,Net-(D1-RA)*%
X51400000Y-87100000D03*
%TO.P,D1,2,RK*%
%TO.N,Net-(D1-RK)*%
X53630000Y-87100000D03*
%TO.P,D1,3,GA*%
%TO.N,Net-(D1-GA)*%
X51400000Y-87985000D03*
%TO.P,D1,4,GK*%
%TO.N,Net-(D1-GK)*%
X53630000Y-87985000D03*
%TO.P,D1,5,BA*%
%TO.N,Net-(D1-BA)*%
X51400000Y-88870500D03*
%TO.P,D1,6,BK*%
%TO.N,Net-(D1-BK)*%
X53630000Y-88870500D03*
%TD*%
D14*
%TO.P,J1,1,Pin_1*%
%TO.N,+5V*%
X48750000Y-93300000D03*
D15*
%TO.P,J1,2,Pin_2*%
%TO.N,Net-(D1-BK)*%
X51250000Y-93300000D03*
%TO.P,J1,3,Pin_3*%
%TO.N,Net-(D1-GK)*%
X53750000Y-93300000D03*
%TO.P,J1,4,Pin_4*%
%TO.N,Net-(D1-RK)*%
X56250000Y-93300000D03*
%TD*%
D16*
%TO.N,Net-(D1-GK)*%
X54485000Y-87985000D02*
X53630000Y-87985000D01*
X55000000Y-88500000D02*
X54485000Y-87985000D01*
X55000000Y-91400000D02*
X55000000Y-88500000D01*
X53750000Y-93300000D02*
X53750000Y-92650000D01*
X53750000Y-92650000D02*
X55000000Y-91400000D01*
%TO.N,Net-(D1-RK)*%
X56250000Y-88550000D02*
X54800000Y-87100000D01*
X56250000Y-93300000D02*
X56250000Y-88550000D01*
X54800000Y-87100000D02*
X53630000Y-87100000D01*
%TO.N,Net-(D1-BK)*%
X51250000Y-91250500D02*
X53630000Y-88870500D01*
X51250000Y-93300000D02*
X51250000Y-91250500D01*
%TO.N,Net-(D1-RA)*%
X50500000Y-87100000D02*
X49750000Y-86350000D01*
X51400000Y-87100000D02*
X50500000Y-87100000D01*
%TO.N,Net-(D1-GA)*%
X49737500Y-87920000D02*
X51335000Y-87920000D01*
X51335000Y-87920000D02*
X51400000Y-87985000D01*
%TO.N,Net-(D1-BA)*%
X49750000Y-89500000D02*
X50770500Y-89500000D01*
X50770500Y-89500000D02*
X51400000Y-88870500D01*
%TD*%
%TA.AperFunction,Conductor*%
%TO.N,Net-(D1-BK)*%
G36*
X53630232Y-88873345D02*
G01*
X53634246Y-88878417D01*
X53732817Y-89118612D01*
X53732788Y-89127567D01*
X53726435Y-89133878D01*
X53725404Y-89134246D01*
X53701481Y-89141537D01*
X53689612Y-89145155D01*
X53689608Y-89145156D01*
X53689606Y-89145157D01*
X53641529Y-89162211D01*
X53593446Y-89181667D01*
X53593439Y-89181669D01*
X53593427Y-89181675D01*
X53545373Y-89203517D01*
X53497284Y-89227776D01*
X53449193Y-89254435D01*
X53401104Y-89283494D01*
X53353022Y-89314949D01*
X53304955Y-89348794D01*
X53264985Y-89378932D01*
X53256316Y-89381177D01*
X53249668Y-89377863D01*
X53120794Y-89248989D01*
X53117367Y-89240716D01*
X53118130Y-89236561D01*
X53121467Y-89227776D01*
X53122897Y-89224013D01*
X53130353Y-89202065D01*
X53137809Y-89177793D01*
X53145265Y-89151197D01*
X53152721Y-89122276D01*
X53160176Y-89091030D01*
X53167632Y-89057460D01*
X53167639Y-89057421D01*
X53167649Y-89057381D01*
X53175075Y-89021629D01*
X53175076Y-89021622D01*
X53175088Y-89021566D01*
X53182544Y-88983347D01*
X53182545Y-88983338D01*
X53182556Y-88983285D01*
X53185777Y-88965766D01*
X53188513Y-88950885D01*
X53193379Y-88943370D01*
X53198104Y-88941461D01*
X53621511Y-88871316D01*
X53630232Y-88873345D01*
G37*
%TD.AperFunction*%
%TD*%
%TA.AperFunction,Conductor*%
%TO.N,Net-(D1-BK)*%
G36*
X51350077Y-91494760D02*
G01*
X51352800Y-91499035D01*
X51410677Y-91658210D01*
X51471349Y-91814914D01*
X51532020Y-91961450D01*
X51592701Y-92097849D01*
X51653367Y-92224055D01*
X51714056Y-92340145D01*
X51774728Y-92446040D01*
X51835388Y-92541754D01*
X51835409Y-92541786D01*
X51896067Y-92627339D01*
X51949595Y-92693873D01*
X51952111Y-92702467D01*
X51948038Y-92710137D01*
X51257559Y-93294601D01*
X51249030Y-93297331D01*
X51242441Y-93294601D01*
X50551961Y-92710137D01*
X50547860Y-92702177D01*
X50550403Y-92693874D01*
X50603925Y-92627348D01*
X50664600Y-92541771D01*
X50725275Y-92446032D01*
X50785950Y-92340131D01*
X50846625Y-92224069D01*
X50907300Y-92097845D01*
X50967975Y-91961459D01*
X51028650Y-91814912D01*
X51089325Y-91658203D01*
X51147199Y-91499034D01*
X51153247Y-91492431D01*
X51158195Y-91491333D01*
X51341804Y-91491333D01*
X51350077Y-91494760D01*
G37*
%TD.AperFunction*%
%TD*%
%TA.AperFunction,Conductor*%
%TO.N,Net-(D1-RA)*%
G36*
X50018082Y-86242652D02*
G01*
X50024394Y-86249004D01*
X50024414Y-86249052D01*
X50044206Y-86297879D01*
X50068410Y-86355039D01*
X50068423Y-86355068D01*
X50092634Y-86409696D01*
X50092646Y-86409723D01*
X50092651Y-86409733D01*
X50116851Y-86461785D01*
X50141049Y-86511286D01*
X50141058Y-86511303D01*
X50165269Y-86558281D01*
X50189481Y-86602710D01*
X50189490Y-86602726D01*
X50189493Y-86602731D01*
X50213693Y-86644590D01*
X50227646Y-86667253D01*
X50237904Y-86683916D01*
X50240604Y-86688017D01*
X50256873Y-86712731D01*
X50258559Y-86721525D01*
X50255373Y-86727437D01*
X50127680Y-86855130D01*
X50119407Y-86858557D01*
X50112637Y-86856399D01*
X50077457Y-86831440D01*
X50077451Y-86831436D01*
X50077441Y-86831429D01*
X50034188Y-86803292D01*
X50034178Y-86803286D01*
X49990941Y-86777709D01*
X49984807Y-86774442D01*
X49947681Y-86754669D01*
X49947660Y-86754659D01*
X49904449Y-86734192D01*
X49904432Y-86734185D01*
X49904428Y-86734183D01*
X49861175Y-86716246D01*
X49861161Y-86716240D01*
X49817946Y-86700867D01*
X49817930Y-86700862D01*
X49817921Y-86700859D01*
X49774668Y-86688023D01*
X49774659Y-86688020D01*
X49774646Y-86688017D01*
X49774644Y-86688016D01*
X49731429Y-86677738D01*
X49731418Y-86677736D01*
X49699810Y-86672083D01*
X49692269Y-86667253D01*
X49690353Y-86658506D01*
X49690355Y-86658493D01*
X49748106Y-86355515D01*
X49753021Y-86348032D01*
X49755147Y-86346889D01*
X50009130Y-86242624D01*
X50018082Y-86242652D01*
G37*
%TD.AperFunction*%
%TD*%
%TA.AperFunction,Conductor*%
%TO.N,Net-(D1-BA)*%
G36*
X49995968Y-89238027D02*
G01*
X49996241Y-89238277D01*
X50013171Y-89254210D01*
X50017703Y-89258475D01*
X50047958Y-89284400D01*
X50078213Y-89307775D01*
X50108468Y-89328600D01*
X50138724Y-89346875D01*
X50168979Y-89362599D01*
X50199234Y-89375774D01*
X50229489Y-89386399D01*
X50259744Y-89394474D01*
X50280404Y-89398247D01*
X50287925Y-89403104D01*
X50290000Y-89409756D01*
X50290000Y-89590242D01*
X50286573Y-89598515D01*
X50280402Y-89601752D01*
X50259745Y-89605524D01*
X50259737Y-89605526D01*
X50229489Y-89613600D01*
X50229482Y-89613602D01*
X50199230Y-89624226D01*
X50199226Y-89624228D01*
X50168989Y-89637395D01*
X50168960Y-89637409D01*
X50138732Y-89653120D01*
X50138714Y-89653130D01*
X50108481Y-89671391D01*
X50108468Y-89671399D01*
X50078213Y-89692224D01*
X50078200Y-89692233D01*
X50047960Y-89715597D01*
X50017706Y-89741520D01*
X49996242Y-89761722D01*
X49987868Y-89764897D01*
X49979703Y-89761221D01*
X49979453Y-89760947D01*
X49884231Y-89653125D01*
X49755838Y-89507743D01*
X49752931Y-89499275D01*
X49755838Y-89492256D01*
X49979454Y-89239051D01*
X49987498Y-89235119D01*
X49995968Y-89238027D01*
G37*
%TD.AperFunction*%
%TD*%
%TA.AperFunction,Conductor*%
%TO.N,Net-(D1-GA)*%
G36*
X49983468Y-87658027D02*
G01*
X49983741Y-87658277D01*
X50000671Y-87674210D01*
X50005203Y-87678475D01*
X50035458Y-87704400D01*
X50065713Y-87727775D01*
X50095968Y-87748600D01*
X50126224Y-87766875D01*
X50156479Y-87782599D01*
X50186734Y-87795774D01*
X50216989Y-87806399D01*
X50247244Y-87814474D01*
X50267904Y-87818247D01*
X50275425Y-87823104D01*
X50277500Y-87829756D01*
X50277500Y-88010242D01*
X50274073Y-88018515D01*
X50267902Y-88021752D01*
X50247245Y-88025524D01*
X50247237Y-88025526D01*
X50216989Y-88033600D01*
X50216982Y-88033602D01*
X50186730Y-88044226D01*
X50186726Y-88044228D01*
X50156489Y-88057395D01*
X50156460Y-88057409D01*
X50126232Y-88073120D01*
X50126214Y-88073130D01*
X50095981Y-88091391D01*
X50095968Y-88091399D01*
X50065713Y-88112224D01*
X50065700Y-88112233D01*
X50035460Y-88135597D01*
X50005206Y-88161520D01*
X49983742Y-88181722D01*
X49975368Y-88184897D01*
X49967203Y-88181221D01*
X49966953Y-88180947D01*
X49871731Y-88073125D01*
X49743338Y-87927743D01*
X49740431Y-87919275D01*
X49743338Y-87912256D01*
X49966954Y-87659051D01*
X49974998Y-87655119D01*
X49983468Y-87658027D01*
G37*
%TD.AperFunction*%
%TD*%
%TA.AperFunction,Conductor*%
%TO.N,Net-(D1-RK)*%
G36*
X53996508Y-86855023D02*
G01*
X54023774Y-86875706D01*
X54057799Y-86899116D01*
X54091824Y-86920127D01*
X54125849Y-86938737D01*
X54125859Y-86938742D01*
X54125858Y-86938742D01*
X54159844Y-86954934D01*
X54159855Y-86954938D01*
X54159874Y-86954948D01*
X54193899Y-86968758D01*
X54227924Y-86980168D01*
X54227933Y-86980170D01*
X54227941Y-86980173D01*
X54240468Y-86983490D01*
X54261949Y-86989179D01*
X54295974Y-86995789D01*
X54319737Y-86998730D01*
X54327526Y-87003146D01*
X54330000Y-87010341D01*
X54330000Y-87189658D01*
X54326573Y-87197931D01*
X54319737Y-87201269D01*
X54295979Y-87204208D01*
X54295966Y-87204210D01*
X54261956Y-87210818D01*
X54227941Y-87219825D01*
X54227920Y-87219832D01*
X54193903Y-87231239D01*
X54193890Y-87231244D01*
X54159884Y-87245047D01*
X54159871Y-87245053D01*
X54125845Y-87261264D01*
X54091839Y-87279863D01*
X54091816Y-87279876D01*
X54057804Y-87300879D01*
X54057789Y-87300889D01*
X54023770Y-87324296D01*
X54023757Y-87324305D01*
X53996511Y-87344974D01*
X53987849Y-87347244D01*
X53982774Y-87345268D01*
X53775070Y-87201269D01*
X53642867Y-87109614D01*
X53638021Y-87102085D01*
X53639919Y-87093334D01*
X53642866Y-87090386D01*
X53982775Y-86854730D01*
X53991524Y-86852833D01*
X53996508Y-86855023D01*
G37*
%TD.AperFunction*%
%TD*%
%TA.AperFunction,Conductor*%
%TO.N,Net-(D1-GK)*%
G36*
X54555388Y-91719647D02*
G01*
X54684744Y-91849003D01*
X54688171Y-91857276D01*
X54688131Y-91858245D01*
X54679718Y-91959476D01*
X54670866Y-92077232D01*
X54670864Y-92077271D01*
X54662006Y-92206362D01*
X54653148Y-92346703D01*
X54649709Y-92405556D01*
X54645746Y-92473385D01*
X54644290Y-92498295D01*
X54635432Y-92661136D01*
X54635431Y-92661157D01*
X54626574Y-92835208D01*
X54626574Y-92835227D01*
X54617716Y-93020568D01*
X54611604Y-93156200D01*
X54608857Y-93217174D01*
X54600552Y-93412046D01*
X54596776Y-93420166D01*
X54588365Y-93423237D01*
X54587172Y-93423125D01*
X53754959Y-93301534D01*
X53747268Y-93296947D01*
X53746470Y-93295723D01*
X53485620Y-92835208D01*
X53285705Y-92482269D01*
X53284610Y-92473385D01*
X53290120Y-92466326D01*
X53293548Y-92465042D01*
X53404704Y-92442446D01*
X53531644Y-92405557D01*
X53658583Y-92357585D01*
X53785523Y-92298528D01*
X53912462Y-92228387D01*
X54039401Y-92147161D01*
X54166341Y-92054852D01*
X54293280Y-91951458D01*
X54420220Y-91836980D01*
X54538887Y-91719601D01*
X54547179Y-91716220D01*
X54555388Y-91719647D01*
G37*
%TD.AperFunction*%
%TD*%
%TA.AperFunction,Conductor*%
%TO.N,Net-(D1-RA)*%
G36*
X51047223Y-86854730D02*
G01*
X51259743Y-87002068D01*
X51387131Y-87090385D01*
X51391978Y-87097915D01*
X51390080Y-87106666D01*
X51387131Y-87109615D01*
X51047226Y-87345268D01*
X51038475Y-87347166D01*
X51033490Y-87344975D01*
X51006225Y-87324293D01*
X50972200Y-87300883D01*
X50972194Y-87300879D01*
X50938182Y-87279876D01*
X50938159Y-87279863D01*
X50924242Y-87272251D01*
X50904150Y-87261262D01*
X50870125Y-87245052D01*
X50870123Y-87245051D01*
X50870114Y-87245047D01*
X50836108Y-87231244D01*
X50836095Y-87231239D01*
X50802078Y-87219832D01*
X50802057Y-87219825D01*
X50768042Y-87210818D01*
X50734032Y-87204210D01*
X50734019Y-87204208D01*
X50710263Y-87201269D01*
X50702473Y-87196853D01*
X50700000Y-87189658D01*
X50700000Y-87010341D01*
X50703427Y-87002068D01*
X50710263Y-86998730D01*
X50723972Y-86997033D01*
X50734025Y-86995789D01*
X50768050Y-86989179D01*
X50796194Y-86981725D01*
X50802057Y-86980173D01*
X50802060Y-86980171D01*
X50802075Y-86980168D01*
X50836100Y-86968758D01*
X50870125Y-86954948D01*
X50904150Y-86938737D01*
X50938175Y-86920127D01*
X50972200Y-86899116D01*
X51006225Y-86875706D01*
X51033489Y-86855024D01*
X51042151Y-86852755D01*
X51047223Y-86854730D01*
G37*
%TD.AperFunction*%
%TD*%
%TA.AperFunction,Conductor*%
%TO.N,Net-(D1-GA)*%
G36*
X51046293Y-87739085D02*
G01*
X51181053Y-87832513D01*
X51385613Y-87974332D01*
X51390460Y-87981862D01*
X51388562Y-87990613D01*
X51384667Y-87994153D01*
X51008927Y-88204747D01*
X51000035Y-88205803D01*
X50994992Y-88202872D01*
X50971123Y-88179337D01*
X50941014Y-88152047D01*
X50941013Y-88152046D01*
X50941004Y-88152038D01*
X50910878Y-88127133D01*
X50910866Y-88127124D01*
X50910860Y-88127119D01*
X50880760Y-88104633D01*
X50880736Y-88104616D01*
X50850646Y-88084536D01*
X50850635Y-88084529D01*
X50850627Y-88084524D01*
X50837715Y-88076936D01*
X50820509Y-88066823D01*
X50790372Y-88051512D01*
X50781740Y-88047814D01*
X50760250Y-88038609D01*
X50730125Y-88028104D01*
X50727866Y-88027496D01*
X50708660Y-88022329D01*
X50701562Y-88016871D01*
X50700000Y-88011031D01*
X50700000Y-87832513D01*
X50703427Y-87824240D01*
X50711700Y-87820813D01*
X50712458Y-87820838D01*
X50734025Y-87822289D01*
X50734039Y-87822288D01*
X50734040Y-87822289D01*
X50735622Y-87822283D01*
X50768050Y-87822179D01*
X50802075Y-87819668D01*
X50826836Y-87816094D01*
X50836081Y-87814761D01*
X50836084Y-87814760D01*
X50836100Y-87814758D01*
X50870125Y-87807448D01*
X50904150Y-87797737D01*
X50938175Y-87785627D01*
X50972200Y-87771116D01*
X51006225Y-87754206D01*
X51006244Y-87754194D01*
X51006254Y-87754190D01*
X51022019Y-87745242D01*
X51033854Y-87738525D01*
X51042741Y-87737422D01*
X51046293Y-87739085D01*
G37*
%TD.AperFunction*%
%TD*%
%TA.AperFunction,Conductor*%
%TO.N,Net-(D1-BA)*%
G36*
X51400232Y-88873345D02*
G01*
X51404246Y-88878417D01*
X51502817Y-89118612D01*
X51502788Y-89127567D01*
X51496435Y-89133878D01*
X51495404Y-89134246D01*
X51471481Y-89141537D01*
X51459612Y-89145155D01*
X51459608Y-89145156D01*
X51459606Y-89145157D01*
X51411529Y-89162211D01*
X51363446Y-89181667D01*
X51363439Y-89181669D01*
X51363427Y-89181675D01*
X51315373Y-89203517D01*
X51267284Y-89227776D01*
X51219193Y-89254435D01*
X51171104Y-89283494D01*
X51123022Y-89314949D01*
X51074955Y-89348794D01*
X51034985Y-89378932D01*
X51026316Y-89381177D01*
X51019668Y-89377863D01*
X50890794Y-89248989D01*
X50887367Y-89240716D01*
X50888130Y-89236561D01*
X50891467Y-89227776D01*
X50892897Y-89224013D01*
X50900353Y-89202065D01*
X50907809Y-89177793D01*
X50915265Y-89151197D01*
X50922721Y-89122276D01*
X50930176Y-89091030D01*
X50937632Y-89057460D01*
X50937639Y-89057421D01*
X50937649Y-89057381D01*
X50945075Y-89021629D01*
X50945076Y-89021622D01*
X50945088Y-89021566D01*
X50952544Y-88983347D01*
X50952545Y-88983338D01*
X50952556Y-88983285D01*
X50955777Y-88965766D01*
X50958513Y-88950885D01*
X50963379Y-88943370D01*
X50968104Y-88941461D01*
X51391511Y-88871316D01*
X51400232Y-88873345D01*
G37*
%TD.AperFunction*%
%TD*%
%TA.AperFunction,Conductor*%
%TO.N,Net-(D1-RK)*%
G36*
X56350077Y-91494760D02*
G01*
X56352800Y-91499035D01*
X56410677Y-91658210D01*
X56471349Y-91814914D01*
X56532020Y-91961450D01*
X56592701Y-92097849D01*
X56653367Y-92224055D01*
X56714056Y-92340145D01*
X56774728Y-92446040D01*
X56835388Y-92541754D01*
X56835409Y-92541786D01*
X56896067Y-92627339D01*
X56949595Y-92693873D01*
X56952111Y-92702467D01*
X56948038Y-92710137D01*
X56257559Y-93294601D01*
X56249030Y-93297331D01*
X56242441Y-93294601D01*
X55551961Y-92710137D01*
X55547860Y-92702177D01*
X55550403Y-92693874D01*
X55603925Y-92627348D01*
X55664600Y-92541771D01*
X55725275Y-92446032D01*
X55785950Y-92340131D01*
X55846625Y-92224069D01*
X55907300Y-92097845D01*
X55967975Y-91961459D01*
X56028650Y-91814912D01*
X56089325Y-91658203D01*
X56147199Y-91499034D01*
X56153247Y-91492431D01*
X56158195Y-91491333D01*
X56341804Y-91491333D01*
X56350077Y-91494760D01*
G37*
%TD.AperFunction*%
%TD*%
%TA.AperFunction,Conductor*%
%TO.N,+5V*%
G36*
X48129151Y-85520185D02*
G01*
X48174906Y-85572989D01*
X48184850Y-85642147D01*
X48155825Y-85705703D01*
X48149793Y-85712181D01*
X48089268Y-85772705D01*
X48089261Y-85772714D01*
X48007593Y-85910808D01*
X48007592Y-85910811D01*
X47962833Y-86064871D01*
X47962832Y-86064877D01*
X47960069Y-86100000D01*
X48856000Y-86100000D01*
X48923039Y-86119685D01*
X48968794Y-86172489D01*
X48980000Y-86224000D01*
X48980000Y-87149138D01*
X48967500Y-87191707D01*
X48967500Y-88656802D01*
X48977166Y-88674504D01*
X48980000Y-88700862D01*
X48980000Y-90312843D01*
X49119194Y-90272404D01*
X49257285Y-90190738D01*
X49257294Y-90190731D01*
X49370731Y-90077294D01*
X49370735Y-90077288D01*
X49376568Y-90067426D01*
X49427634Y-90019740D01*
X49496376Y-90007233D01*
X49518002Y-90011496D01*
X49526827Y-90014068D01*
X49575683Y-90020500D01*
X49575684Y-90020500D01*
X49924317Y-90020500D01*
X49940601Y-90018356D01*
X49973173Y-90014068D01*
X50080404Y-89964065D01*
X50116480Y-89927987D01*
X50132434Y-89915295D01*
X50132268Y-89915080D01*
X50137077Y-89911371D01*
X50137087Y-89911365D01*
X50152985Y-89896400D01*
X50157232Y-89892586D01*
X50175362Y-89877051D01*
X50180174Y-89873135D01*
X50196688Y-89860376D01*
X50202142Y-89856396D01*
X50216931Y-89846216D01*
X50223081Y-89842247D01*
X50235962Y-89834468D01*
X50242834Y-89830611D01*
X50253717Y-89824955D01*
X50261355Y-89821311D01*
X50270275Y-89817427D01*
X50278636Y-89814143D01*
X50285657Y-89811677D01*
X50294703Y-89808886D01*
X50299978Y-89807478D01*
X50309640Y-89805310D01*
X50317321Y-89803908D01*
X50317326Y-89803906D01*
X50321940Y-89803064D01*
X50322042Y-89803624D01*
X50346302Y-89800500D01*
X50810060Y-89800500D01*
X50810062Y-89800500D01*
X50886489Y-89780021D01*
X50955011Y-89740460D01*
X51010960Y-89684511D01*
X51132213Y-89563256D01*
X51155304Y-89545090D01*
X51158691Y-89543021D01*
X51158706Y-89543015D01*
X51194422Y-89516083D01*
X51197615Y-89513756D01*
X51236755Y-89486197D01*
X51240167Y-89483880D01*
X51278772Y-89458625D01*
X51282399Y-89456345D01*
X51320243Y-89433477D01*
X51324114Y-89431234D01*
X51361380Y-89410576D01*
X51365499Y-89408396D01*
X51402030Y-89389967D01*
X51406451Y-89387849D01*
X51442195Y-89371602D01*
X51446871Y-89369595D01*
X51481968Y-89355393D01*
X51486990Y-89353488D01*
X51521363Y-89341295D01*
X51526562Y-89339582D01*
X51537061Y-89336382D01*
X51573197Y-89331000D01*
X51748725Y-89331000D01*
X51796859Y-89324663D01*
X51902491Y-89275406D01*
X51984906Y-89192991D01*
X52034163Y-89087359D01*
X52040500Y-89039224D01*
X52040500Y-88701776D01*
X52034866Y-88658977D01*
X52034163Y-88653640D01*
X52034162Y-88653639D01*
X52016919Y-88616662D01*
X51984906Y-88548009D01*
X51952328Y-88515431D01*
X51918843Y-88454108D01*
X51923827Y-88384416D01*
X51952328Y-88340069D01*
X51966561Y-88325836D01*
X51984906Y-88307491D01*
X52034163Y-88201859D01*
X52040500Y-88153724D01*
X52040500Y-87816276D01*
X52034163Y-87768141D01*
X51984906Y-87662509D01*
X51952578Y-87630181D01*
X51919093Y-87568858D01*
X51924077Y-87499166D01*
X51952578Y-87454819D01*
X51963089Y-87444308D01*
X51984906Y-87422491D01*
X52034163Y-87316859D01*
X52040500Y-87268724D01*
X52040500Y-86931276D01*
X52039949Y-86927086D01*
X52034163Y-86883140D01*
X52034162Y-86883139D01*
X52013311Y-86838424D01*
X51984906Y-86777509D01*
X51902491Y-86695094D01*
X51841997Y-86666885D01*
X51796860Y-86645837D01*
X51796859Y-86645836D01*
X51748725Y-86639500D01*
X51748724Y-86639500D01*
X51051276Y-86639500D01*
X51051275Y-86639500D01*
X51003140Y-86645836D01*
X51003139Y-86645837D01*
X50897509Y-86695093D01*
X50886404Y-86706198D01*
X50869010Y-86720670D01*
X50862427Y-86725199D01*
X50857299Y-86728544D01*
X50837604Y-86740707D01*
X50831948Y-86743997D01*
X50813621Y-86754020D01*
X50807457Y-86757171D01*
X50790521Y-86765240D01*
X50783827Y-86768190D01*
X50768271Y-86774505D01*
X50761068Y-86777171D01*
X50746849Y-86781940D01*
X50739171Y-86784241D01*
X50726109Y-86787700D01*
X50718018Y-86789555D01*
X50705965Y-86791897D01*
X50697540Y-86793235D01*
X50687034Y-86794535D01*
X50618085Y-86783232D01*
X50584126Y-86759155D01*
X50444802Y-86619831D01*
X50428913Y-86600335D01*
X50428519Y-86599736D01*
X50412288Y-86575081D01*
X50410293Y-86571948D01*
X50391062Y-86540709D01*
X50389336Y-86537818D01*
X50369437Y-86503399D01*
X50367966Y-86500777D01*
X50347609Y-86463423D01*
X50347527Y-86463272D01*
X50346187Y-86460745D01*
X50325315Y-86420246D01*
X50324168Y-86417961D01*
X50302878Y-86374408D01*
X50301839Y-86372228D01*
X50280243Y-86325778D01*
X50279319Y-86323745D01*
X50257380Y-86274244D01*
X50256602Y-86272448D01*
X50234398Y-86220013D01*
X50233707Y-86218344D01*
X50229579Y-86208158D01*
X50220500Y-86161585D01*
X50220500Y-86125683D01*
X50214068Y-86076828D01*
X50214068Y-86076827D01*
X50164065Y-85969596D01*
X50080404Y-85885935D01*
X49973173Y-85835932D01*
X49973171Y-85835931D01*
X49973172Y-85835931D01*
X49924317Y-85829500D01*
X49924316Y-85829500D01*
X49575684Y-85829500D01*
X49575683Y-85829500D01*
X49526822Y-85835932D01*
X49517994Y-85838505D01*
X49448124Y-85838362D01*
X49389424Y-85800468D01*
X49376569Y-85782575D01*
X49370736Y-85772711D01*
X49370731Y-85772705D01*
X49310207Y-85712181D01*
X49276722Y-85650858D01*
X49281706Y-85581166D01*
X49323578Y-85525233D01*
X49389042Y-85500816D01*
X49397888Y-85500500D01*
X58470841Y-85500500D01*
X58537880Y-85520185D01*
X58583635Y-85572989D01*
X58593579Y-85642147D01*
X58564554Y-85705703D01*
X58534991Y-85730617D01*
X58463422Y-85773881D01*
X58463416Y-85773886D01*
X58275030Y-85921474D01*
X58275029Y-85921476D01*
X59417262Y-87063709D01*
X59283398Y-87160967D01*
X59160967Y-87283398D01*
X59063709Y-87417262D01*
X57921476Y-86275029D01*
X57921474Y-86275030D01*
X57773886Y-86463416D01*
X57773881Y-86463422D01*
X57604898Y-86742956D01*
X57604897Y-86742958D01*
X57470839Y-87040824D01*
X57470835Y-87040835D01*
X57373667Y-87352658D01*
X57314786Y-87673961D01*
X57295065Y-88000000D01*
X57314786Y-88326038D01*
X57373667Y-88647341D01*
X57470835Y-88959164D01*
X57470839Y-88959175D01*
X57604897Y-89257041D01*
X57604898Y-89257043D01*
X57773881Y-89536576D01*
X57921476Y-89724968D01*
X59063708Y-88582736D01*
X59160967Y-88716602D01*
X59283398Y-88839033D01*
X59417262Y-88936290D01*
X58275030Y-90078522D01*
X58275030Y-90078523D01*
X58463423Y-90226118D01*
X58742956Y-90395101D01*
X58742958Y-90395102D01*
X59040824Y-90529160D01*
X59040835Y-90529164D01*
X59352658Y-90626332D01*
X59673961Y-90685213D01*
X60000000Y-90704934D01*
X60326038Y-90685213D01*
X60647341Y-90626332D01*
X60959164Y-90529164D01*
X60959175Y-90529160D01*
X61257041Y-90395102D01*
X61257043Y-90395101D01*
X61536586Y-90226112D01*
X61724968Y-90078523D01*
X61724968Y-90078522D01*
X60582737Y-88936290D01*
X60716602Y-88839033D01*
X60839033Y-88716602D01*
X60936290Y-88582737D01*
X62078522Y-89724968D01*
X62078523Y-89724968D01*
X62226111Y-89536586D01*
X62269383Y-89465007D01*
X62320911Y-89417820D01*
X62389770Y-89405981D01*
X62454099Y-89433250D01*
X62493473Y-89490968D01*
X62499500Y-89529157D01*
X62499500Y-92496249D01*
X62499274Y-92503736D01*
X62481728Y-92793794D01*
X62479923Y-92808659D01*
X62428219Y-93090798D01*
X62424635Y-93105336D01*
X62339306Y-93379167D01*
X62333997Y-93393168D01*
X62216275Y-93654736D01*
X62209316Y-93667995D01*
X62060928Y-93913459D01*
X62052422Y-93925782D01*
X61875526Y-94151573D01*
X61865596Y-94162781D01*
X61662781Y-94365596D01*
X61651573Y-94375526D01*
X61425782Y-94552422D01*
X61413459Y-94560928D01*
X61167995Y-94709316D01*
X61154736Y-94716275D01*
X60893168Y-94833997D01*
X60879167Y-94839306D01*
X60605336Y-94924635D01*
X60590798Y-94928219D01*
X60308659Y-94979923D01*
X60293794Y-94981728D01*
X60003736Y-94999274D01*
X59996249Y-94999500D01*
X49561956Y-94999500D01*
X49494917Y-94979815D01*
X49449162Y-94927011D01*
X49439218Y-94857853D01*
X49468243Y-94794297D01*
X49522952Y-94757794D01*
X49669119Y-94709358D01*
X49669124Y-94709356D01*
X49818345Y-94617315D01*
X49942315Y-94493345D01*
X50034356Y-94344124D01*
X50034358Y-94344119D01*
X50089505Y-94177697D01*
X50089506Y-94177690D01*
X50099999Y-94074986D01*
X50099999Y-94003528D01*
X50119683Y-93936488D01*
X50172486Y-93890732D01*
X50241644Y-93880788D01*
X50305200Y-93909812D01*
X50327101Y-93934635D01*
X50434022Y-94094655D01*
X50580342Y-94240975D01*
X50580345Y-94240977D01*
X50752402Y-94355941D01*
X50943580Y-94435130D01*
X51146530Y-94475499D01*
X51146534Y-94475500D01*
X51146535Y-94475500D01*
X51353466Y-94475500D01*
X51353467Y-94475499D01*
X51556420Y-94435130D01*
X51747598Y-94355941D01*
X51919655Y-94240977D01*
X52065977Y-94094655D01*
X52180941Y-93922598D01*
X52260130Y-93731420D01*
X52300500Y-93528465D01*
X52300500Y-93071535D01*
X52260130Y-92868580D01*
X52180941Y-92677402D01*
X52127129Y-92596867D01*
X52120312Y-92585366D01*
X52109710Y-92565058D01*
X52109710Y-92565057D01*
X52109708Y-92565054D01*
X52090521Y-92541205D01*
X52084032Y-92532366D01*
X52065978Y-92505346D01*
X52065972Y-92505339D01*
X52057942Y-92497309D01*
X52044468Y-92481348D01*
X52007980Y-92429884D01*
X52004412Y-92424563D01*
X51952230Y-92342229D01*
X51949381Y-92337504D01*
X51902615Y-92255880D01*
X51895518Y-92243493D01*
X51893246Y-92239342D01*
X51838050Y-92133759D01*
X51836182Y-92130034D01*
X51780010Y-92013179D01*
X51778474Y-92009859D01*
X51764900Y-91979348D01*
X51721510Y-91881815D01*
X51720239Y-91878854D01*
X51662685Y-91739845D01*
X51661618Y-91737181D01*
X51603532Y-91587156D01*
X51602652Y-91584813D01*
X51559774Y-91466890D01*
X51555367Y-91397164D01*
X51588628Y-91336842D01*
X53362210Y-89563259D01*
X53385299Y-89545093D01*
X53388691Y-89543021D01*
X53388706Y-89543015D01*
X53424422Y-89516083D01*
X53427615Y-89513756D01*
X53466755Y-89486197D01*
X53470167Y-89483880D01*
X53508772Y-89458625D01*
X53512399Y-89456345D01*
X53550243Y-89433477D01*
X53554114Y-89431234D01*
X53591380Y-89410576D01*
X53595499Y-89408396D01*
X53632030Y-89389967D01*
X53636451Y-89387849D01*
X53672195Y-89371602D01*
X53676871Y-89369595D01*
X53711968Y-89355393D01*
X53716990Y-89353488D01*
X53751363Y-89341295D01*
X53756562Y-89339582D01*
X53767061Y-89336382D01*
X53803197Y-89331000D01*
X53978725Y-89331000D01*
X54026859Y-89324663D01*
X54132491Y-89275406D01*
X54214906Y-89192991D01*
X54264163Y-89087359D01*
X54270500Y-89039224D01*
X54270500Y-88701776D01*
X54264866Y-88658977D01*
X54264163Y-88653640D01*
X54264162Y-88653639D01*
X54246919Y-88616662D01*
X54214906Y-88548009D01*
X54192361Y-88525464D01*
X54158876Y-88464141D01*
X54163860Y-88394449D01*
X54205732Y-88338516D01*
X54226707Y-88325840D01*
X54239496Y-88319747D01*
X54246166Y-88316808D01*
X54261730Y-88310491D01*
X54268896Y-88307837D01*
X54281443Y-88303629D01*
X54351263Y-88300981D01*
X54408545Y-88333516D01*
X54663181Y-88588152D01*
X54696666Y-88649475D01*
X54699500Y-88675833D01*
X54699500Y-91224166D01*
X54679815Y-91291205D01*
X54663181Y-91311847D01*
X54424316Y-91550712D01*
X54404966Y-91566504D01*
X54394372Y-91573500D01*
X54394369Y-91573502D01*
X54281103Y-91685538D01*
X54276946Y-91689464D01*
X54161808Y-91793298D01*
X54157074Y-91797356D01*
X54043565Y-91889811D01*
X54038183Y-91893955D01*
X53926475Y-91975188D01*
X53920381Y-91979348D01*
X53810640Y-92049569D01*
X53803777Y-92053655D01*
X53703557Y-92109033D01*
X53652430Y-92122219D01*
X53652596Y-92123903D01*
X53646530Y-92124500D01*
X53443587Y-92164868D01*
X53443579Y-92164870D01*
X53252403Y-92244058D01*
X53080342Y-92359024D01*
X52934024Y-92505342D01*
X52819058Y-92677403D01*
X52739870Y-92868579D01*
X52739868Y-92868587D01*
X52699500Y-93071530D01*
X52699500Y-93528469D01*
X52739868Y-93731412D01*
X52739870Y-93731420D01*
X52805859Y-93890732D01*
X52819059Y-93922598D01*
X52827102Y-93934635D01*
X52934024Y-94094657D01*
X53080342Y-94240975D01*
X53080345Y-94240977D01*
X53252402Y-94355941D01*
X53443580Y-94435130D01*
X53646530Y-94475499D01*
X53646534Y-94475500D01*
X53646535Y-94475500D01*
X53853466Y-94475500D01*
X53853467Y-94475499D01*
X54056420Y-94435130D01*
X54247598Y-94355941D01*
X54419655Y-94240977D01*
X54565977Y-94094655D01*
X54680941Y-93922598D01*
X54760130Y-93731420D01*
X54800500Y-93528465D01*
X54800500Y-93457710D01*
X54804023Y-93428361D01*
X54804598Y-93426000D01*
X54805866Y-93420796D01*
X54814161Y-93226140D01*
X54814161Y-93226139D01*
X54814199Y-93226140D01*
X54814174Y-93225840D01*
X54822995Y-93030097D01*
X54831840Y-92845037D01*
X54840628Y-92672319D01*
X54849469Y-92509770D01*
X54858255Y-92359422D01*
X54858286Y-92358917D01*
X54867062Y-92219862D01*
X54875824Y-92092175D01*
X54875850Y-92091810D01*
X54884000Y-91983384D01*
X54908653Y-91918012D01*
X54919955Y-91905015D01*
X55240460Y-91584511D01*
X55271631Y-91530521D01*
X55280021Y-91515989D01*
X55300500Y-91439562D01*
X55300500Y-88460438D01*
X55280021Y-88384011D01*
X55269329Y-88365492D01*
X55240464Y-88315494D01*
X55237711Y-88311907D01*
X55212514Y-88246739D01*
X55226550Y-88178294D01*
X55275362Y-88128302D01*
X55343453Y-88112636D01*
X55409204Y-88136270D01*
X55423765Y-88148736D01*
X55913181Y-88638152D01*
X55946666Y-88699475D01*
X55949500Y-88725833D01*
X55949500Y-91419531D01*
X55942035Y-91461904D01*
X55897344Y-91584813D01*
X55896444Y-91587211D01*
X55838392Y-91737148D01*
X55837325Y-91739812D01*
X55779734Y-91878910D01*
X55778469Y-91881856D01*
X55721507Y-92009896D01*
X55719989Y-92013177D01*
X55663810Y-92130047D01*
X55661942Y-92133773D01*
X55606787Y-92239276D01*
X55604489Y-92243472D01*
X55550612Y-92337507D01*
X55547758Y-92342241D01*
X55495596Y-92424548D01*
X55492013Y-92429890D01*
X55455520Y-92481360D01*
X55442058Y-92497309D01*
X55439368Y-92500000D01*
X55434021Y-92505347D01*
X55434020Y-92505347D01*
X55415967Y-92532366D01*
X55409485Y-92541195D01*
X55390288Y-92565058D01*
X55378529Y-92587244D01*
X55372072Y-92598059D01*
X55319059Y-92677400D01*
X55239870Y-92868579D01*
X55239868Y-92868587D01*
X55199500Y-93071530D01*
X55199500Y-93528469D01*
X55239868Y-93731412D01*
X55239870Y-93731420D01*
X55305859Y-93890732D01*
X55319059Y-93922598D01*
X55327102Y-93934635D01*
X55434024Y-94094657D01*
X55580342Y-94240975D01*
X55580345Y-94240977D01*
X55752402Y-94355941D01*
X55943580Y-94435130D01*
X56146530Y-94475499D01*
X56146534Y-94475500D01*
X56146535Y-94475500D01*
X56353466Y-94475500D01*
X56353467Y-94475499D01*
X56556420Y-94435130D01*
X56747598Y-94355941D01*
X56919655Y-94240977D01*
X57065977Y-94094655D01*
X57180941Y-93922598D01*
X57260130Y-93731420D01*
X57300500Y-93528465D01*
X57300500Y-93071535D01*
X57260130Y-92868580D01*
X57180941Y-92677402D01*
X57127129Y-92596867D01*
X57120312Y-92585366D01*
X57109710Y-92565058D01*
X57109710Y-92565057D01*
X57109708Y-92565054D01*
X57090521Y-92541205D01*
X57084032Y-92532366D01*
X57065978Y-92505346D01*
X57065972Y-92505339D01*
X57057942Y-92497309D01*
X57044468Y-92481348D01*
X57007980Y-92429884D01*
X57004412Y-92424563D01*
X56952230Y-92342229D01*
X56949381Y-92337504D01*
X56902615Y-92255880D01*
X56895518Y-92243493D01*
X56893246Y-92239342D01*
X56838050Y-92133759D01*
X56836182Y-92130034D01*
X56780010Y-92013179D01*
X56778474Y-92009859D01*
X56764900Y-91979348D01*
X56721510Y-91881815D01*
X56720239Y-91878854D01*
X56662685Y-91739845D01*
X56661618Y-91737181D01*
X56603532Y-91587156D01*
X56602652Y-91584813D01*
X56557962Y-91461904D01*
X56550500Y-91419540D01*
X56550500Y-88510440D01*
X56550499Y-88510436D01*
X56546975Y-88497285D01*
X56538484Y-88465594D01*
X56530022Y-88434012D01*
X56490460Y-88365489D01*
X54984511Y-86859540D01*
X54984510Y-86859539D01*
X54975241Y-86854188D01*
X54965971Y-86848836D01*
X54915991Y-86819980D01*
X54915990Y-86819979D01*
X54890513Y-86813152D01*
X54839562Y-86799500D01*
X54839560Y-86799500D01*
X54379205Y-86799500D01*
X54351179Y-86794984D01*
X54350923Y-86796124D01*
X54344982Y-86794787D01*
X54344978Y-86794786D01*
X54344973Y-86794785D01*
X54344967Y-86794784D01*
X54332453Y-86793234D01*
X54324053Y-86791900D01*
X54311970Y-86789553D01*
X54303872Y-86787696D01*
X54290855Y-86784249D01*
X54283170Y-86781946D01*
X54268917Y-86777166D01*
X54261714Y-86774499D01*
X54246166Y-86768189D01*
X54239466Y-86765237D01*
X54226699Y-86759155D01*
X54222557Y-86757181D01*
X54216415Y-86754042D01*
X54198039Y-86743991D01*
X54192403Y-86740713D01*
X54172685Y-86728536D01*
X54167569Y-86725199D01*
X54160985Y-86720669D01*
X54143594Y-86706197D01*
X54132489Y-86695092D01*
X54112063Y-86685567D01*
X54101629Y-86680084D01*
X54079177Y-86666885D01*
X54079171Y-86666882D01*
X54079169Y-86666881D01*
X54074202Y-86664699D01*
X54074203Y-86664699D01*
X54074193Y-86664695D01*
X54074186Y-86664692D01*
X54074172Y-86664687D01*
X54055989Y-86658567D01*
X54043149Y-86653432D01*
X54026857Y-86645836D01*
X53978725Y-86639500D01*
X53978724Y-86639500D01*
X53281276Y-86639500D01*
X53281275Y-86639500D01*
X53233140Y-86645836D01*
X53233139Y-86645837D01*
X53127508Y-86695094D01*
X53045094Y-86777508D01*
X52995837Y-86883139D01*
X52995836Y-86883140D01*
X52989500Y-86931275D01*
X52989500Y-87268724D01*
X52995836Y-87316859D01*
X52995837Y-87316860D01*
X53045094Y-87422491D01*
X53077422Y-87454819D01*
X53110907Y-87516142D01*
X53105923Y-87585834D01*
X53077422Y-87630181D01*
X53045094Y-87662508D01*
X52995837Y-87768139D01*
X52995836Y-87768140D01*
X52989500Y-87816275D01*
X52989500Y-88153724D01*
X52995836Y-88201859D01*
X52995837Y-88201860D01*
X53045094Y-88307491D01*
X53077672Y-88340069D01*
X53111157Y-88401392D01*
X53106173Y-88471084D01*
X53077672Y-88515431D01*
X53045094Y-88548008D01*
X52995837Y-88653639D01*
X52995836Y-88653640D01*
X52989500Y-88701775D01*
X52989500Y-88885564D01*
X52987456Y-88907987D01*
X52986401Y-88913724D01*
X52986401Y-88913725D01*
X52980771Y-88944340D01*
X52980537Y-88945577D01*
X52973764Y-88980290D01*
X52973468Y-88981758D01*
X52966902Y-89013374D01*
X52966544Y-89015042D01*
X52960120Y-89043970D01*
X52959682Y-89045871D01*
X52953512Y-89071726D01*
X52952973Y-89073898D01*
X52947139Y-89096528D01*
X52946462Y-89099044D01*
X52943530Y-89109503D01*
X52911814Y-89163713D01*
X51065489Y-91010040D01*
X51009541Y-91065987D01*
X51009535Y-91065995D01*
X50969982Y-91134504D01*
X50969979Y-91134509D01*
X50949500Y-91210939D01*
X50949500Y-91419531D01*
X50942035Y-91461904D01*
X50897344Y-91584813D01*
X50896444Y-91587211D01*
X50838392Y-91737148D01*
X50837325Y-91739812D01*
X50779734Y-91878910D01*
X50778469Y-91881856D01*
X50721507Y-92009896D01*
X50719989Y-92013177D01*
X50663810Y-92130047D01*
X50661942Y-92133773D01*
X50606787Y-92239276D01*
X50604489Y-92243472D01*
X50550612Y-92337507D01*
X50547758Y-92342241D01*
X50495596Y-92424548D01*
X50492013Y-92429890D01*
X50455520Y-92481360D01*
X50442058Y-92497309D01*
X50439368Y-92500000D01*
X50434021Y-92505347D01*
X50434020Y-92505347D01*
X50415967Y-92532366D01*
X50409485Y-92541195D01*
X50390288Y-92565058D01*
X50378529Y-92587244D01*
X50372072Y-92598060D01*
X50327102Y-92665364D01*
X50273490Y-92710169D01*
X50204165Y-92718878D01*
X50141138Y-92688724D01*
X50104418Y-92629281D01*
X50099999Y-92596474D01*
X50099999Y-92525028D01*
X50099998Y-92525012D01*
X50089505Y-92422302D01*
X50034358Y-92255880D01*
X50034356Y-92255875D01*
X49942315Y-92106654D01*
X49818345Y-91982684D01*
X49669124Y-91890643D01*
X49669119Y-91890641D01*
X49502697Y-91835494D01*
X49502690Y-91835493D01*
X49399986Y-91825000D01*
X49000000Y-91825000D01*
X49000000Y-92895854D01*
X48933343Y-92857370D01*
X48812535Y-92825000D01*
X48687465Y-92825000D01*
X48566657Y-92857370D01*
X48500000Y-92895854D01*
X48500000Y-91825000D01*
X48100028Y-91825000D01*
X48100012Y-91825001D01*
X47997302Y-91835494D01*
X47830880Y-91890641D01*
X47830875Y-91890643D01*
X47681654Y-91982684D01*
X47557684Y-92106654D01*
X47465643Y-92255875D01*
X47465641Y-92255880D01*
X47410494Y-92422302D01*
X47410493Y-92422309D01*
X47400000Y-92525013D01*
X47400000Y-93050000D01*
X48345854Y-93050000D01*
X48307370Y-93116657D01*
X48275000Y-93237465D01*
X48275000Y-93362535D01*
X48307370Y-93483343D01*
X48345854Y-93550000D01*
X47400001Y-93550000D01*
X47400001Y-94074986D01*
X47410494Y-94177697D01*
X47465641Y-94344119D01*
X47465643Y-94344124D01*
X47557684Y-94493345D01*
X47681654Y-94617315D01*
X47830875Y-94709356D01*
X47830880Y-94709358D01*
X47977050Y-94757794D01*
X48034495Y-94797566D01*
X48061318Y-94862082D01*
X48049003Y-94930858D01*
X48001460Y-94982058D01*
X47938046Y-94999500D01*
X45003751Y-94999500D01*
X44996264Y-94999274D01*
X44706205Y-94981728D01*
X44691340Y-94979923D01*
X44409201Y-94928219D01*
X44394663Y-94924635D01*
X44120832Y-94839306D01*
X44106831Y-94833997D01*
X43845263Y-94716275D01*
X43832004Y-94709316D01*
X43586540Y-94560928D01*
X43574217Y-94552422D01*
X43348426Y-94375526D01*
X43337218Y-94365596D01*
X43134403Y-94162781D01*
X43124473Y-94151573D01*
X43008487Y-94003528D01*
X42947573Y-93925776D01*
X42939075Y-93913465D01*
X42790680Y-93667989D01*
X42783727Y-93654743D01*
X42666000Y-93393163D01*
X42660693Y-93379167D01*
X42655510Y-93362535D01*
X42575363Y-93105335D01*
X42571780Y-93090798D01*
X42568249Y-93071530D01*
X42520075Y-92808657D01*
X42518271Y-92793794D01*
X42513739Y-92718878D01*
X42500726Y-92503736D01*
X42500500Y-92496249D01*
X42500500Y-89529158D01*
X42520185Y-89462119D01*
X42572989Y-89416364D01*
X42642147Y-89406420D01*
X42705703Y-89435445D01*
X42730617Y-89465009D01*
X42773877Y-89536571D01*
X42773880Y-89536575D01*
X42921476Y-89724968D01*
X44063708Y-88582736D01*
X44160967Y-88716602D01*
X44283398Y-88839033D01*
X44417262Y-88936290D01*
X43275030Y-90078522D01*
X43275030Y-90078523D01*
X43463423Y-90226118D01*
X43742956Y-90395101D01*
X43742958Y-90395102D01*
X44040824Y-90529160D01*
X44040835Y-90529164D01*
X44352658Y-90626332D01*
X44673961Y-90685213D01*
X45000000Y-90704934D01*
X45326038Y-90685213D01*
X45647341Y-90626332D01*
X45959164Y-90529164D01*
X45959175Y-90529160D01*
X46257041Y-90395102D01*
X46257043Y-90395101D01*
X46536586Y-90226112D01*
X46724968Y-90078523D01*
X46724968Y-90078522D01*
X46396446Y-89750000D01*
X47960069Y-89750000D01*
X47962832Y-89785122D01*
X47962833Y-89785128D01*
X48007592Y-89939188D01*
X48007593Y-89939191D01*
X48089261Y-90077285D01*
X48089268Y-90077294D01*
X48202705Y-90190731D01*
X48202714Y-90190738D01*
X48340805Y-90272404D01*
X48480000Y-90312844D01*
X48480000Y-89750000D01*
X47960069Y-89750000D01*
X46396446Y-89750000D01*
X45582737Y-88936290D01*
X45716602Y-88839033D01*
X45839033Y-88716602D01*
X45936290Y-88582737D01*
X47078522Y-89724968D01*
X47078523Y-89724968D01*
X47226112Y-89536586D01*
X47395101Y-89257043D01*
X47395102Y-89257041D01*
X47529160Y-88959175D01*
X47529164Y-88959164D01*
X47626332Y-88647341D01*
X47685213Y-88326037D01*
X47694651Y-88170000D01*
X47947569Y-88170000D01*
X47950332Y-88205122D01*
X47950333Y-88205128D01*
X47995092Y-88359188D01*
X47995093Y-88359191D01*
X48076761Y-88497285D01*
X48076768Y-88497294D01*
X48190205Y-88610731D01*
X48196374Y-88615516D01*
X48194636Y-88617755D01*
X48233143Y-88658977D01*
X48245662Y-88727716D01*
X48219031Y-88792311D01*
X48207818Y-88803338D01*
X48208227Y-88803747D01*
X48089268Y-88922705D01*
X48089261Y-88922714D01*
X48007593Y-89060808D01*
X48007592Y-89060811D01*
X47962833Y-89214871D01*
X47962832Y-89214877D01*
X47960069Y-89250000D01*
X48480000Y-89250000D01*
X48480000Y-88763197D01*
X48470334Y-88745496D01*
X48467500Y-88719138D01*
X48467500Y-88170000D01*
X47947569Y-88170000D01*
X47694651Y-88170000D01*
X47696976Y-88131570D01*
X47698221Y-88128116D01*
X47697917Y-88116010D01*
X47704934Y-87999999D01*
X47685213Y-87673961D01*
X47684487Y-87670000D01*
X47947569Y-87670000D01*
X48467500Y-87670000D01*
X48467500Y-87120862D01*
X48480000Y-87078292D01*
X48480000Y-86600000D01*
X47960069Y-86600000D01*
X47962832Y-86635122D01*
X47962833Y-86635128D01*
X48007592Y-86789188D01*
X48007593Y-86789191D01*
X48089261Y-86927285D01*
X48089268Y-86927294D01*
X48203967Y-87041993D01*
X48237452Y-87103316D01*
X48232468Y-87173008D01*
X48195400Y-87223420D01*
X48195727Y-87223747D01*
X48193583Y-87225890D01*
X48192289Y-87227651D01*
X48190211Y-87229262D01*
X48076768Y-87342705D01*
X48076761Y-87342714D01*
X47995093Y-87480808D01*
X47995092Y-87480811D01*
X47950333Y-87634871D01*
X47950332Y-87634877D01*
X47947569Y-87670000D01*
X47684487Y-87670000D01*
X47626332Y-87352658D01*
X47529164Y-87040835D01*
X47529160Y-87040824D01*
X47395102Y-86742958D01*
X47395101Y-86742956D01*
X47226118Y-86463423D01*
X47078522Y-86275030D01*
X45936290Y-87417262D01*
X45839033Y-87283398D01*
X45716602Y-87160967D01*
X45582736Y-87063709D01*
X46724968Y-85921476D01*
X46536576Y-85773881D01*
X46465009Y-85730617D01*
X46417822Y-85679089D01*
X46405983Y-85610230D01*
X46433252Y-85545901D01*
X46490970Y-85506527D01*
X46529159Y-85500500D01*
X48062112Y-85500500D01*
X48129151Y-85520185D01*
G37*
%TD.AperFunction*%
%TD*%
%TA.AperFunction,Conductor*%
%TO.N,Net-(D1-GK)*%
G36*
X53996508Y-87740023D02*
G01*
X54023774Y-87760706D01*
X54057799Y-87784116D01*
X54091824Y-87805127D01*
X54125849Y-87823737D01*
X54125859Y-87823742D01*
X54125858Y-87823742D01*
X54159844Y-87839934D01*
X54159855Y-87839938D01*
X54159874Y-87839948D01*
X54193899Y-87853758D01*
X54227924Y-87865168D01*
X54227933Y-87865170D01*
X54227941Y-87865173D01*
X54240468Y-87868490D01*
X54261949Y-87874179D01*
X54295974Y-87880789D01*
X54319737Y-87883730D01*
X54327526Y-87888146D01*
X54330000Y-87895341D01*
X54330000Y-88074658D01*
X54326573Y-88082931D01*
X54319737Y-88086269D01*
X54295979Y-88089208D01*
X54295966Y-88089210D01*
X54261956Y-88095818D01*
X54227941Y-88104825D01*
X54227920Y-88104832D01*
X54193903Y-88116239D01*
X54193890Y-88116244D01*
X54159884Y-88130047D01*
X54159871Y-88130053D01*
X54125845Y-88146264D01*
X54091839Y-88164863D01*
X54091816Y-88164876D01*
X54057804Y-88185879D01*
X54057789Y-88185889D01*
X54023770Y-88209296D01*
X54023757Y-88209305D01*
X53996511Y-88229974D01*
X53987849Y-88232244D01*
X53982774Y-88230268D01*
X53775070Y-88086269D01*
X53642867Y-87994614D01*
X53638021Y-87987085D01*
X53639919Y-87978334D01*
X53642866Y-87975386D01*
X53982775Y-87739730D01*
X53991524Y-87737833D01*
X53996508Y-87740023D01*
G37*
%TD.AperFunction*%
%TD*%
M02*
