%TF.GenerationSoftware,KiCad,Pcbnew,8.0.0-8.0.0-1~ubuntu22.04.1*%
%TF.CreationDate,2024-03-31T18:49:52+02:00*%
%TF.ProjectId,PCB LED,50434220-4c45-4442-9e6b-696361645f70,rev?*%
%TF.SameCoordinates,Original*%
%TF.FileFunction,Legend,Top*%
%TF.FilePolarity,Positive*%
%FSLAX46Y46*%
G04 Gerber Fmt 4.6, Leading zero omitted, Abs format (unit mm)*
G04 Created by KiCad (PCBNEW 8.0.0-8.0.0-1~ubuntu22.04.1) date 2024-03-31 18:49:52*
%MOMM*%
%LPD*%
G01*
G04 APERTURE LIST*
%ADD10C,0.100000*%
%ADD11C,0.120000*%
G04 APERTURE END LIST*
D10*
X49173333Y-88919847D02*
X49040000Y-88729371D01*
X48944762Y-88919847D02*
X48944762Y-88519847D01*
X48944762Y-88519847D02*
X49097143Y-88519847D01*
X49097143Y-88519847D02*
X49135238Y-88538895D01*
X49135238Y-88538895D02*
X49154285Y-88557942D01*
X49154285Y-88557942D02*
X49173333Y-88596038D01*
X49173333Y-88596038D02*
X49173333Y-88653180D01*
X49173333Y-88653180D02*
X49154285Y-88691276D01*
X49154285Y-88691276D02*
X49135238Y-88710323D01*
X49135238Y-88710323D02*
X49097143Y-88729371D01*
X49097143Y-88729371D02*
X48944762Y-88729371D01*
X49325714Y-88557942D02*
X49344762Y-88538895D01*
X49344762Y-88538895D02*
X49382857Y-88519847D01*
X49382857Y-88519847D02*
X49478095Y-88519847D01*
X49478095Y-88519847D02*
X49516190Y-88538895D01*
X49516190Y-88538895D02*
X49535238Y-88557942D01*
X49535238Y-88557942D02*
X49554285Y-88596038D01*
X49554285Y-88596038D02*
X49554285Y-88634133D01*
X49554285Y-88634133D02*
X49535238Y-88691276D01*
X49535238Y-88691276D02*
X49306666Y-88919847D01*
X49306666Y-88919847D02*
X49554285Y-88919847D01*
X49173333Y-87309847D02*
X49040000Y-87119371D01*
X48944762Y-87309847D02*
X48944762Y-86909847D01*
X48944762Y-86909847D02*
X49097143Y-86909847D01*
X49097143Y-86909847D02*
X49135238Y-86928895D01*
X49135238Y-86928895D02*
X49154285Y-86947942D01*
X49154285Y-86947942D02*
X49173333Y-86986038D01*
X49173333Y-86986038D02*
X49173333Y-87043180D01*
X49173333Y-87043180D02*
X49154285Y-87081276D01*
X49154285Y-87081276D02*
X49135238Y-87100323D01*
X49135238Y-87100323D02*
X49097143Y-87119371D01*
X49097143Y-87119371D02*
X48944762Y-87119371D01*
X49554285Y-87309847D02*
X49325714Y-87309847D01*
X49440000Y-87309847D02*
X49440000Y-86909847D01*
X49440000Y-86909847D02*
X49401904Y-86966990D01*
X49401904Y-86966990D02*
X49363809Y-87005085D01*
X49363809Y-87005085D02*
X49325714Y-87024133D01*
X49173333Y-90489847D02*
X49040000Y-90299371D01*
X48944762Y-90489847D02*
X48944762Y-90089847D01*
X48944762Y-90089847D02*
X49097143Y-90089847D01*
X49097143Y-90089847D02*
X49135238Y-90108895D01*
X49135238Y-90108895D02*
X49154285Y-90127942D01*
X49154285Y-90127942D02*
X49173333Y-90166038D01*
X49173333Y-90166038D02*
X49173333Y-90223180D01*
X49173333Y-90223180D02*
X49154285Y-90261276D01*
X49154285Y-90261276D02*
X49135238Y-90280323D01*
X49135238Y-90280323D02*
X49097143Y-90299371D01*
X49097143Y-90299371D02*
X48944762Y-90299371D01*
X49306666Y-90089847D02*
X49554285Y-90089847D01*
X49554285Y-90089847D02*
X49420952Y-90242228D01*
X49420952Y-90242228D02*
X49478095Y-90242228D01*
X49478095Y-90242228D02*
X49516190Y-90261276D01*
X49516190Y-90261276D02*
X49535238Y-90280323D01*
X49535238Y-90280323D02*
X49554285Y-90318419D01*
X49554285Y-90318419D02*
X49554285Y-90413657D01*
X49554285Y-90413657D02*
X49535238Y-90451752D01*
X49535238Y-90451752D02*
X49516190Y-90470800D01*
X49516190Y-90470800D02*
X49478095Y-90489847D01*
X49478095Y-90489847D02*
X49363809Y-90489847D01*
X49363809Y-90489847D02*
X49325714Y-90470800D01*
X49325714Y-90470800D02*
X49306666Y-90451752D01*
X55314895Y-87466666D02*
X54514895Y-87466666D01*
X54514895Y-87466666D02*
X54514895Y-87299999D01*
X54514895Y-87299999D02*
X54552990Y-87199999D01*
X54552990Y-87199999D02*
X54629180Y-87133333D01*
X54629180Y-87133333D02*
X54705371Y-87099999D01*
X54705371Y-87099999D02*
X54857752Y-87066666D01*
X54857752Y-87066666D02*
X54972038Y-87066666D01*
X54972038Y-87066666D02*
X55124419Y-87099999D01*
X55124419Y-87099999D02*
X55200609Y-87133333D01*
X55200609Y-87133333D02*
X55276800Y-87199999D01*
X55276800Y-87199999D02*
X55314895Y-87299999D01*
X55314895Y-87299999D02*
X55314895Y-87466666D01*
X55314895Y-86399999D02*
X55314895Y-86799999D01*
X55314895Y-86599999D02*
X54514895Y-86599999D01*
X54514895Y-86599999D02*
X54629180Y-86666666D01*
X54629180Y-86666666D02*
X54705371Y-86733333D01*
X54705371Y-86733333D02*
X54743466Y-86799999D01*
D11*
%TO.C,R2*%
X49381141Y-87540000D02*
X49073859Y-87540000D01*
X49381141Y-88300000D02*
X49073859Y-88300000D01*
%TO.C,R1*%
X49393641Y-85970000D02*
X49086359Y-85970000D01*
X49393641Y-86730000D02*
X49086359Y-86730000D01*
%TO.C,R3*%
X49393641Y-89120000D02*
X49086359Y-89120000D01*
X49393641Y-89880000D02*
X49086359Y-89880000D01*
D10*
%TO.C,D1*%
X50600000Y-86500000D02*
X54400000Y-86500000D01*
X50600000Y-89500000D02*
X50600000Y-86500000D01*
X54400000Y-86500000D02*
X54400000Y-89500000D01*
X54400000Y-89500000D02*
X50600000Y-89500000D01*
%TD*%
M02*
