%TF.GenerationSoftware,KiCad,Pcbnew,8.0.0-8.0.0-1~ubuntu22.04.1*%
%TF.CreationDate,2024-03-31T18:49:52+02:00*%
%TF.ProjectId,PCB LED,50434220-4c45-4442-9e6b-696361645f70,rev?*%
%TF.SameCoordinates,Original*%
%TF.FileFunction,Legend,Bot*%
%TF.FilePolarity,Positive*%
%FSLAX46Y46*%
G04 Gerber Fmt 4.6, Leading zero omitted, Abs format (unit mm)*
G04 Created by KiCad (PCBNEW 8.0.0-8.0.0-1~ubuntu22.04.1) date 2024-03-31 18:49:52*
%MOMM*%
%LPD*%
G01*
G04 APERTURE LIST*
%ADD10C,0.150000*%
%ADD11C,0.120000*%
G04 APERTURE END LIST*
D10*
X60833333Y-92454819D02*
X60833333Y-93169104D01*
X60833333Y-93169104D02*
X60880952Y-93311961D01*
X60880952Y-93311961D02*
X60976190Y-93407200D01*
X60976190Y-93407200D02*
X61119047Y-93454819D01*
X61119047Y-93454819D02*
X61214285Y-93454819D01*
X59833333Y-93454819D02*
X60404761Y-93454819D01*
X60119047Y-93454819D02*
X60119047Y-92454819D01*
X60119047Y-92454819D02*
X60214285Y-92597676D01*
X60214285Y-92597676D02*
X60309523Y-92692914D01*
X60309523Y-92692914D02*
X60404761Y-92740533D01*
D11*
%TO.C,J1*%
X45840000Y-90690000D02*
X45840000Y-93190000D01*
X46140000Y-90990000D02*
X46140000Y-95010000D01*
X46140000Y-95010000D02*
X58860000Y-95010000D01*
X46640000Y-93300000D02*
X46140000Y-93300000D01*
X46640000Y-94510000D02*
X46640000Y-93300000D01*
X47140000Y-90990000D02*
X47140000Y-92490000D01*
X47140000Y-92490000D02*
X46140000Y-92490000D01*
X48340000Y-90690000D02*
X45840000Y-90690000D01*
X57860000Y-90990000D02*
X57860000Y-92490000D01*
X57860000Y-92490000D02*
X58860000Y-92490000D01*
X58360000Y-93300000D02*
X58360000Y-94510000D01*
X58360000Y-94510000D02*
X46640000Y-94510000D01*
X58860000Y-90990000D02*
X46140000Y-90990000D01*
X58860000Y-93300000D02*
X58360000Y-93300000D01*
X58860000Y-95010000D02*
X58860000Y-90990000D01*
%TD*%
M02*
